<svg id="visual" viewBox="0 0 900 600" width="900" height="600" xmlns="http://www.w3.org/2000/svg" xmlns:xlink="http://www.w3.org/1999/xlink" version="1.1"><rect x="0" y="0" width="900" height="600" fill="#001220"></rect><defs><linearGradient id="grad1_0" x1="33.3%" y1="0%" x2="100%" y2="100%"><stop offset="20%" stop-color="#fbae3c" stop-opacity="1"></stop><stop offset="80%" stop-color="#fbae3c" stop-opacity="1"></stop></linearGradient></defs><defs><linearGradient id="grad1_1" x1="33.3%" y1="0%" x2="100%" y2="100%"><stop offset="20%" stop-color="#fbae3c" stop-opacity="1"></stop><stop offset="80%" stop-color="#f48350" stop-opacity="1"></stop></linearGradient></defs><defs><linearGradient id="grad1_2" x1="33.3%" y1="0%" x2="100%" y2="100%"><stop offset="20%" stop-color="#d96162" stop-opacity="1"></stop><stop offset="80%" stop-color="#f48350" stop-opacity="1"></stop></linearGradient></defs><defs><linearGradient id="grad1_3" x1="33.3%" y1="0%" x2="100%" y2="100%"><stop offset="20%" stop-color="#d96162" stop-opacity="1"></stop><stop offset="80%" stop-color="#af4b6d" stop-opacity="1"></stop></linearGradient></defs><defs><linearGradient id="grad1_4" x1="33.3%" y1="0%" x2="100%" y2="100%"><stop offset="20%" stop-color="#7c3e6b" stop-opacity="1"></stop><stop offset="80%" stop-color="#af4b6d" stop-opacity="1"></stop></linearGradient></defs><defs><linearGradient id="grad1_5" x1="33.3%" y1="0%" x2="100%" y2="100%"><stop offset="20%" stop-color="#7c3e6b" stop-opacity="1"></stop><stop offset="80%" stop-color="#49335c" stop-opacity="1"></stop></linearGradient></defs><defs><linearGradient id="grad1_6" x1="33.3%" y1="0%" x2="100%" y2="100%"><stop offset="20%" stop-color="#1d2540" stop-opacity="1"></stop><stop offset="80%" stop-color="#49335c" stop-opacity="1"></stop></linearGradient></defs><defs><linearGradient id="grad1_7" x1="33.3%" y1="0%" x2="100%" y2="100%"><stop offset="20%" stop-color="#1d2540" stop-opacity="1"></stop><stop offset="80%" stop-color="#001220" stop-opacity="1"></stop></linearGradient></defs><defs><linearGradient id="grad2_0" x1="0%" y1="0%" x2="66.7%" y2="100%"><stop offset="20%" stop-color="#fbae3c" stop-opacity="1"></stop><stop offset="80%" stop-color="#fbae3c" stop-opacity="1"></stop></linearGradient></defs><defs><linearGradient id="grad2_1" x1="0%" y1="0%" x2="66.7%" y2="100%"><stop offset="20%" stop-color="#f48350" stop-opacity="1"></stop><stop offset="80%" stop-color="#fbae3c" stop-opacity="1"></stop></linearGradient></defs><defs><linearGradient id="grad2_2" x1="0%" y1="0%" x2="66.7%" y2="100%"><stop offset="20%" stop-color="#f48350" stop-opacity="1"></stop><stop offset="80%" stop-color="#d96162" stop-opacity="1"></stop></linearGradient></defs><defs><linearGradient id="grad2_3" x1="0%" y1="0%" x2="66.7%" y2="100%"><stop offset="20%" stop-color="#af4b6d" stop-opacity="1"></stop><stop offset="80%" stop-color="#d96162" stop-opacity="1"></stop></linearGradient></defs><defs><linearGradient id="grad2_4" x1="0%" y1="0%" x2="66.7%" y2="100%"><stop offset="20%" stop-color="#af4b6d" stop-opacity="1"></stop><stop offset="80%" stop-color="#7c3e6b" stop-opacity="1"></stop></linearGradient></defs><defs><linearGradient id="grad2_5" x1="0%" y1="0%" x2="66.7%" y2="100%"><stop offset="20%" stop-color="#49335c" stop-opacity="1"></stop><stop offset="80%" stop-color="#7c3e6b" stop-opacity="1"></stop></linearGradient></defs><defs><linearGradient id="grad2_6" x1="0%" y1="0%" x2="66.7%" y2="100%"><stop offset="20%" stop-color="#49335c" stop-opacity="1"></stop><stop offset="80%" stop-color="#1d2540" stop-opacity="1"></stop></linearGradient></defs><defs><linearGradient id="grad2_7" x1="0%" y1="0%" x2="66.7%" y2="100%"><stop offset="20%" stop-color="#001220" stop-opacity="1"></stop><stop offset="80%" stop-color="#1d2540" stop-opacity="1"></stop></linearGradient></defs><g transform="translate(900, 0)"><path d="M0 432.7C-51.3 408.6 -102.5 384.6 -149.6 361.2C-196.8 337.9 -239.8 315.1 -284.3 284.3C-328.8 253.4 -374.7 214.3 -399.7 165.6C-424.7 116.8 -428.7 58.4 -432.7 0L0 0Z" fill="#0c1c30"></path><path d="M0 378.6C-44.8 357.6 -89.7 336.5 -130.9 316.1C-172.2 295.6 -209.8 275.8 -248.7 248.7C-287.7 221.7 -327.9 187.5 -349.8 144.9C-371.6 102.2 -375.1 51.1 -378.6 0L0 0Z" fill="#312c4f"></path><path d="M0 324.5C-38.4 306.5 -76.9 288.5 -112.2 270.9C-147.6 253.4 -179.8 236.4 -213.2 213.2C-246.6 190 -281.1 160.7 -299.8 124.2C-318.5 87.6 -321.5 43.8 -324.5 0L0 0Z" fill="#623965"></path><path d="M0 270.4C-32 255.4 -64.1 240.4 -93.5 225.8C-123 211.2 -149.8 197 -177.7 177.7C-205.5 158.4 -234.2 133.9 -249.8 103.5C-265.4 73 -267.9 36.5 -270.4 0L0 0Z" fill="#96446e"></path><path d="M0 216.3C-25.6 204.3 -51.3 192.3 -74.8 180.6C-98.4 168.9 -119.9 157.6 -142.1 142.1C-164.4 126.7 -187.4 107.2 -199.9 82.8C-212.4 58.4 -214.3 29.2 -216.3 0L0 0Z" fill="#c55469"></path><path d="M0 162.2C-19.2 153.2 -38.4 144.2 -56.1 135.5C-73.8 126.7 -89.9 118.2 -106.6 106.6C-123.3 95 -140.5 80.4 -149.9 62.1C-159.3 43.8 -160.8 21.9 -162.2 0L0 0Z" fill="#e9705a"></path><path d="M0 108.2C-12.8 102.2 -25.6 96.2 -37.4 90.3C-49.2 84.5 -59.9 78.8 -71.1 71.1C-82.2 63.3 -93.7 53.6 -99.9 41.4C-106.2 29.2 -107.2 14.6 -108.2 0L0 0Z" fill="#fa9845"></path><path d="M0 54.1C-6.4 51.1 -12.8 48.1 -18.7 45.2C-24.6 42.2 -30 39.4 -35.5 35.5C-41.1 31.7 -46.8 26.8 -50 20.7C-53.1 14.6 -53.6 7.3 -54.1 0L0 0Z" fill="#fbae3c"></path></g><g transform="translate(0, 600)"><path d="M0 -432.7C51.6 -415.2 103.1 -397.6 157.3 -379.7C211.4 -361.8 268.1 -343.4 305.9 -305.9C343.8 -268.5 362.7 -211.8 380.6 -157.7C398.6 -103.5 415.6 -51.7 432.7 0L0 0Z" fill="#0c1c30"></path><path d="M0 -378.6C45.1 -363.3 90.3 -347.9 137.6 -332.3C185 -316.6 234.6 -300.5 267.7 -267.7C300.8 -234.9 317.3 -185.4 333.1 -138C348.8 -90.6 363.7 -45.3 378.6 0L0 0Z" fill="#312c4f"></path><path d="M0 -324.5C38.7 -311.4 77.4 -298.2 118 -284.8C158.6 -271.3 201.1 -257.6 229.5 -229.5C257.8 -201.3 272 -158.9 285.5 -118.2C299 -77.6 311.7 -38.8 324.5 0L0 0Z" fill="#623965"></path><path d="M0 -270.4C32.2 -259.5 64.5 -248.5 98.3 -237.3C132.1 -226.1 167.6 -214.6 191.2 -191.2C214.8 -167.8 226.7 -132.4 237.9 -98.5C249.1 -64.7 259.8 -32.3 270.4 0L0 0Z" fill="#96446e"></path><path d="M0 -216.3C25.8 -207.6 51.6 -198.8 78.6 -189.9C105.7 -180.9 134.1 -171.7 153 -153C171.9 -134.2 181.3 -105.9 190.3 -78.8C199.3 -51.7 207.8 -25.9 216.3 0L0 0Z" fill="#c55469"></path><path d="M0 -162.2C19.3 -155.7 38.7 -149.1 59 -142.4C79.3 -135.7 100.5 -128.8 114.7 -114.7C128.9 -100.7 136 -79.4 142.7 -59.1C149.5 -38.8 155.9 -19.4 162.2 0L0 0Z" fill="#e9705a"></path><path d="M0 -108.2C12.9 -103.8 25.8 -99.4 39.3 -94.9C52.9 -90.4 67 -85.9 76.5 -76.5C85.9 -67.1 90.7 -53 95.2 -39.4C99.7 -25.9 103.9 -12.9 108.2 0L0 0Z" fill="#fa9845"></path><path d="M0 -54.1C6.4 -51.9 12.9 -49.7 19.7 -47.5C26.4 -45.2 33.5 -42.9 38.2 -38.2C43 -33.6 45.3 -26.5 47.6 -19.7C49.8 -12.9 52 -6.5 54.1 0L0 0Z" fill="#fbae3c"></path></g></svg>